# xmcd CD database file
#
# Track frame offsets:
#	150
#	18330
#	35821
#
# Disc length: 939 seconds
#
# Revision: 1
# Processed by: cddbd v1.5.1PL2 Copyright (c) Steve Scherf et al.
# Submitted via: CDex 1.51
#
DISCID=1e03a903
DTITLE=ゆず - アゲイン２
DYEAR=2002
DGENRE=Folk
TTITLE0=アゲイン２
TTITLE1=みぞれ雪
TTITLE2=手暗がりの下
EXTD=YEAR: 2002
EXTT0=
EXTT1=
EXTT2=
PLAYORDER=
